<svg width="16" height="15" viewBox="0 0 16 15" fill="none" xmlns="http://www.w3.org/2000/svg">
<path d="M7.58594 1.30911C7.69304 1.20215 7.8382 1.14207 7.98956 1.14207C8.14092 1.14207 8.28609 1.20215 8.39318 1.30911L15.011 7.92691C15.0633 7.98302 15.1263 8.02803 15.1964 8.05925C15.2664 8.09047 15.3421 8.10725 15.4188 8.1086C15.4955 8.10996 15.5716 8.09585 15.6428 8.06712C15.7139 8.0384 15.7785 7.99564 15.8327 7.9414C15.8869 7.88717 15.9297 7.82256 15.9584 7.75145C15.9872 7.68033 16.0013 7.60415 15.9999 7.52746C15.9986 7.45077 15.9818 7.37514 15.9506 7.30508C15.9193 7.23502 15.8743 7.17196 15.8182 7.11967L9.20117 0.501871C9.04206 0.342758 8.85317 0.216543 8.64528 0.130432C8.43739 0.0443209 8.21458 0 7.98956 0C7.76454 0 7.54173 0.0443209 7.33384 0.130432C7.12595 0.216543 6.93706 0.342758 6.77795 0.501871L0.160146 7.11967C0.0561548 7.22744 -0.00134749 7.37175 2.39809e-05 7.5215C0.00139545 7.67126 0.061531 7.81448 0.167478 7.92033C0.273426 8.02618 0.416708 8.08618 0.566465 8.08741C0.716221 8.08864 0.86047 8.031 0.968142 7.92691L7.58594 1.30911Z" fill="#353535"/>
<path d="M7.98975 2.5213L14.2032 8.73472C14.226 8.75757 14.2489 8.77889 14.2725 8.80021V13.5203C14.2725 14.3084 13.6328 14.9481 12.8446 14.9481H10.2744C10.1229 14.9481 9.97762 14.888 9.87051 14.7809C9.7634 14.6737 9.70322 14.5285 9.70322 14.377V10.95C9.70322 10.7986 9.64305 10.6533 9.53594 10.5462C9.42882 10.4391 9.28355 10.3789 9.13207 10.3789H6.84744C6.69596 10.3789 6.55068 10.4391 6.44357 10.5462C6.33646 10.6533 6.27628 10.7986 6.27628 10.95V14.377C6.27628 14.5285 6.21611 14.6737 6.109 14.7809C6.00188 14.888 5.85661 14.9481 5.70513 14.9481H3.13492C2.75622 14.9481 2.39303 14.7977 2.12525 14.5299C1.85747 14.2621 1.70703 13.899 1.70703 13.5203V8.80021C1.73072 8.77902 1.75383 8.75718 1.77633 8.73472L7.98975 2.51978V2.5213Z" fill="#353535"/>
</svg>
