<svg width="30" height="29" viewBox="0 0 30 29" fill="none" xmlns="http://www.w3.org/2000/svg">
<path d="M9.75 13.8333C9.75 13.988 9.68854 14.1364 9.57915 14.2458C9.46975 14.3552 9.32138 14.4167 9.16667 14.4167C9.01196 14.4167 8.86358 14.3552 8.75419 14.2458C8.64479 14.1364 8.58333 13.988 8.58333 13.8333C8.58333 13.6786 8.64479 13.5303 8.75419 13.4209C8.86358 13.3115 9.01196 13.25 9.16667 13.25C9.32138 13.25 9.46975 13.3115 9.57915 13.4209C9.68854 13.5303 9.75 13.6786 9.75 13.8333ZM9.75 13.8333H9.16667M15.5833 13.8333C15.5833 13.988 15.5219 14.1364 15.4125 14.2458C15.3031 14.3552 15.1547 14.4167 15 14.4167C14.8453 14.4167 14.6969 14.3552 14.5875 14.2458C14.4781 14.1364 14.4167 13.988 14.4167 13.8333C14.4167 13.6786 14.4781 13.5303 14.5875 13.4209C14.6969 13.3115 14.8453 13.25 15 13.25C15.1547 13.25 15.3031 13.3115 15.4125 13.4209C15.5219 13.5303 15.5833 13.6786 15.5833 13.8333ZM15.5833 13.8333H15M21.4167 13.8333C21.4167 13.988 21.3552 14.1364 21.2458 14.2458C21.1364 14.3552 20.988 14.4167 20.8333 14.4167C20.6786 14.4167 20.5303 14.3552 20.4209 14.2458C20.3115 14.1364 20.25 13.988 20.25 13.8333C20.25 13.6786 20.3115 13.5303 20.4209 13.4209C20.5303 13.3115 20.6786 13.25 20.8333 13.25C20.988 13.25 21.1364 13.3115 21.2458 13.4209C21.3552 13.5303 21.4167 13.6786 21.4167 13.8333ZM21.4167 13.8333H20.8333M29 13.8333C29 20.9204 22.7311 26.6667 15 26.6667C13.6578 26.6683 12.3214 26.492 11.0256 26.1424C9.19896 27.4271 6.97073 28.0108 4.74889 27.7867C4.50186 27.7628 4.25588 27.7291 4.01156 27.6856C4.77824 26.782 5.30184 25.6978 5.53289 24.5356C5.67289 23.8247 5.326 23.134 4.80644 22.6284C2.44667 20.3324 1 17.2384 1 13.8333C1 6.74622 7.26889 1 15 1C22.7311 1 29 6.74622 29 13.8333Z" stroke="#353535" stroke-width="1.5" stroke-linecap="round" stroke-linejoin="round"/>
</svg>
