<svg width="14" height="19" viewBox="0 0 14 19" fill="none" xmlns="http://www.w3.org/2000/svg">
<path fill-rule="evenodd" clip-rule="evenodd" d="M6.68373 16.19C6.76624 16.2747 6.88061 16.3227 7 16.3227C7.11896 16.3227 7.23432 16.2739 7.31657 16.1897C7.64737 15.8483 7.96827 15.4975 8.28537 15.1439C8.86423 14.4984 9.63703 13.6024 10.4109 12.602C11.1835 11.6031 11.964 10.4914 12.5533 9.41551C13.1351 8.35307 13.5625 7.26941 13.5625 6.34211C13.5625 2.83262 10.6173 0 7 0C3.38266 0 0.4375 2.83262 0.4375 6.34211C0.4375 7.26941 0.864841 8.35307 1.44672 9.41551C2.03595 10.4914 2.81645 11.6031 3.58907 12.602C4.36297 13.6024 5.13577 14.4984 5.71462 15.1439C6.03181 15.4976 6.35281 15.8485 6.68373 16.19ZM3.9375 6.44318C3.9375 4.78256 5.30862 3.43636 7 3.43636C8.69137 3.43636 10.0625 4.78256 10.0625 6.44318C10.0625 8.1038 8.69137 9.45 7 9.45C5.30862 9.45 3.9375 8.1038 3.9375 6.44318ZM4.8125 6.44318C4.8125 5.25703 5.79189 4.29545 7 4.29545C8.20811 4.29545 9.1875 5.25703 9.1875 6.44318C9.1875 7.62933 8.20811 8.59091 7 8.59091C5.79189 8.59091 4.8125 7.62933 4.8125 6.44318ZM2.44453 14.1369C2.66472 14.0393 2.76264 13.7849 2.66319 13.5687C2.56375 13.3525 2.30462 13.2563 2.08442 13.354C1.48592 13.6193 0.975625 13.9434 0.609057 14.3233C0.240341 14.7054 0 15.1638 0 15.6784C0 16.2075 0.253872 16.6767 0.640132 17.0652C1.02445 17.4518 1.55916 17.7803 2.18566 18.0468C3.44011 18.5805 5.14255 18.9 7 18.9C8.85745 18.9 10.5599 18.5805 11.8143 18.0468C12.4408 17.7803 12.9755 17.4518 13.3598 17.0652C13.7461 16.6767 14 16.2075 14 15.6784C14 15.1638 13.7596 14.7054 13.391 14.3233C13.0244 13.9434 12.5141 13.6193 11.9156 13.354C11.6954 13.2563 11.4362 13.3525 11.3368 13.5687C11.2374 13.7849 11.3353 14.0393 11.5555 14.1369C12.0886 14.3733 12.4917 14.6405 12.7557 14.9142C13.0176 15.1855 13.125 15.4428 13.125 15.6784C13.125 15.9203 13.0116 16.1856 12.7337 16.4652C12.4538 16.7467 12.0275 17.0198 11.4664 17.2585C10.3457 17.7354 8.76693 18.0409 7 18.0409C5.23307 18.0409 3.65426 17.7354 2.53356 17.2585C1.97251 17.0198 1.54617 16.7467 1.2663 16.4652C0.9884 16.1856 0.875 15.9203 0.875 15.6784C0.875 15.4428 0.982362 15.1855 1.24425 14.9142C1.50832 14.6405 1.91144 14.3733 2.44453 14.1369Z" fill="#CD0608"/>
</svg>
