<svg width="26" height="25" viewBox="0 0 26 25" fill="none" xmlns="http://www.w3.org/2000/svg">
<path d="M1 1H2.71535C3.34653 1 3.89728 1.43974 4.06064 2.07051L4.53465 3.91282M4.53465 3.91282C11.429 3.71268 18.3168 4.50661 25 6.27179C23.9802 9.41795 22.7686 12.4744 21.3812 15.4231H7.49752M4.53465 3.91282L7.49752 15.4231M7.49752 15.4231C6.51281 15.4231 5.56843 15.8283 4.87213 16.5496C4.17583 17.2709 3.78465 18.2492 3.78465 19.2692H23.2772M5.64109 23.1154C5.64109 23.3704 5.5433 23.615 5.36922 23.7953C5.19515 23.9756 4.95905 24.0769 4.71287 24.0769C4.46669 24.0769 4.2306 23.9756 4.05652 23.7953C3.88245 23.615 3.78465 23.3704 3.78465 23.1154C3.78465 22.8604 3.88245 22.6158 4.05652 22.4355C4.2306 22.2551 4.46669 22.1538 4.71287 22.1538C4.95905 22.1538 5.19515 22.2551 5.36922 22.4355C5.5433 22.6158 5.64109 22.8604 5.64109 23.1154ZM21.4208 23.1154C21.4208 23.3704 21.323 23.615 21.1489 23.7953C20.9748 23.9756 20.7388 24.0769 20.4926 24.0769C20.2464 24.0769 20.0103 23.9756 19.8362 23.7953C19.6621 23.615 19.5644 23.3704 19.5644 23.1154C19.5644 22.8604 19.6621 22.6158 19.8362 22.4355C20.0103 22.2551 20.2464 22.1538 20.4926 22.1538C20.7388 22.1538 20.9748 22.2551 21.1489 22.4355C21.323 22.6158 21.4208 22.8604 21.4208 23.1154Z" stroke="#CD0608" stroke-width="1.5" stroke-linecap="round" stroke-linejoin="round"/>
</svg>
