<svg width="44" height="25" viewBox="0 0 44 25" fill="none" xmlns="http://www.w3.org/2000/svg">
<path fill-rule="evenodd" clip-rule="evenodd" d="M8.59337 20.8157C8.69946 20.9246 8.84649 20.9864 9 20.9864C9.15294 20.9864 9.30128 20.9236 9.40702 20.8153C9.83233 20.3764 10.2449 19.9253 10.6526 19.4707C11.3969 18.6409 12.3905 17.4888 13.3855 16.2025C14.3788 14.9183 15.3823 13.489 16.1399 12.1057C16.8881 10.7397 17.4375 9.34639 17.4375 8.15414C17.4375 3.64195 13.6509 0 9 0C4.34914 0 0.5625 3.64195 0.5625 8.15414C0.5625 9.34639 1.11194 10.7397 1.86007 12.1057C2.61765 13.489 3.62115 14.9183 4.61452 16.2025C5.60953 17.4888 6.60313 18.6409 7.34737 19.4707C7.75519 19.9255 8.16789 20.3767 8.59337 20.8157ZM5.0625 8.28409C5.0625 6.149 6.82538 4.41818 9 4.41818C11.1746 4.41818 12.9375 6.149 12.9375 8.28409C12.9375 10.4192 11.1746 12.15 9 12.15C6.82538 12.15 5.0625 10.4192 5.0625 8.28409ZM6.1875 8.28409C6.1875 6.75904 7.44671 5.52273 9 5.52273C10.5533 5.52273 11.8125 6.75904 11.8125 8.28409C11.8125 9.80914 10.5533 11.0455 9 11.0455C7.44671 11.0455 6.1875 9.80914 6.1875 8.28409ZM3.14297 18.1761C3.42607 18.0505 3.55196 17.7234 3.42411 17.4455C3.29625 17.1675 2.96308 17.0439 2.67997 17.1694C1.91047 17.5105 1.25437 17.9273 0.783073 18.4157C0.309009 18.9069 0 19.4963 0 20.158C0 20.8382 0.326407 21.4415 0.823027 21.941C1.31715 22.438 2.00464 22.8603 2.81014 23.203C4.42299 23.8893 6.61185 24.3 9 24.3C11.3882 24.3 13.577 23.8893 15.1899 23.203C15.9954 22.8603 16.6828 22.438 17.1769 21.941C17.6736 21.4415 18 20.8382 18 20.158C18 19.4963 17.691 18.9069 17.2169 18.4157C16.7456 17.9273 16.0895 17.5105 15.32 17.1694C15.0369 17.0439 14.7037 17.1675 14.5759 17.4455C14.448 17.7234 14.5739 18.0505 14.857 18.1761C15.5424 18.4799 16.0607 18.8235 16.4002 19.1754C16.737 19.5243 16.875 19.855 16.875 20.158C16.875 20.469 16.7292 20.8101 16.3719 21.1695C16.0121 21.5315 15.4639 21.8826 14.7426 22.1895C13.3017 22.8026 11.2718 23.1955 9 23.1955C6.72823 23.1955 4.69834 22.8026 3.25744 22.1895C2.53609 21.8826 1.98793 21.5315 1.6281 21.1695C1.2708 20.8101 1.125 20.469 1.125 20.158C1.125 19.855 1.26304 19.5243 1.59975 19.1754C1.93927 18.8235 2.45756 18.4799 3.14297 18.1761Z" fill="#CD0608"/>
<line x1="35.0607" y1="12" x2="39" y2="15.9393" stroke="#9B9B9B" stroke-width="1.5" stroke-linecap="round" stroke-linejoin="round"/>
<line x1="39" y1="15.9393" x2="42.9393" y2="12" stroke="#9B9B9B" stroke-width="1.5" stroke-linecap="round" stroke-linejoin="round"/>
</svg>
