<svg width="18" height="20" viewBox="0 0 18 20" fill="none" xmlns="http://www.w3.org/2000/svg">
<path d="M11.7504 14.5542C13.5438 14.3419 15.3058 13.9187 17 13.2933C15.5652 11.704 14.7724 9.63815 14.7756 7.49702V6.82326V6.77513C14.7756 5.24347 14.1672 3.77454 13.0841 2.6915C12.0011 1.60845 10.5321 1 9.00048 1C7.46882 1 5.99989 1.60845 4.91685 2.6915C3.8338 3.77454 3.22535 5.24347 3.22535 6.77513V7.49702C3.22825 9.63828 2.43511 11.7042 1 13.2933C2.66805 13.9093 4.42658 14.3377 6.25056 14.5542M11.7504 14.5542C9.92353 14.7709 8.07744 14.7709 6.25056 14.5542M11.7504 14.5542C11.8891 14.9872 11.9236 15.4469 11.8511 15.8957C11.7785 16.3446 11.6011 16.77 11.333 17.1372C11.065 17.5045 10.7141 17.8033 10.3087 18.0093C9.9034 18.2153 9.45515 18.3227 9.00048 18.3227C8.54581 18.3227 8.09756 18.2153 7.69223 18.0093C7.2869 17.8033 6.93594 17.5045 6.66793 17.1372C6.39991 16.77 6.22242 16.3446 6.14989 15.8957C6.07736 15.4469 6.11185 14.9872 6.25056 14.5542" stroke="#CD0608" stroke-width="1.5" stroke-linecap="round" stroke-linejoin="round"/>
</svg>
