<svg width="17" height="32" viewBox="0 0 17 32" fill="none" xmlns="http://www.w3.org/2000/svg">
<path d="M7.92996 11.0273L5.62563 20.2496L13.694 30.6239M4.47347 26.0136L1.01535 30.6223" stroke="#CD0608" stroke-width="1.5" stroke-linecap="round" stroke-linejoin="round"/>
<path d="M1.01535 17.9437C1.01535 11.4889 5.62564 11.0274 7.9316 11.0274H10.2359C10.6205 12.9488 12.3111 17.0223 16 17.9437M8.84645 7.54638C9.71456 7.54638 10.5471 7.20152 11.1609 6.58768C11.7748 5.97384 12.1196 5.14129 12.1196 4.27319C12.1196 3.40508 11.7748 2.57254 11.1609 1.95869C10.5471 1.34485 9.71456 1 8.84645 1C7.97835 1 7.1458 1.34485 6.53196 1.95869C5.91812 2.57254 5.57326 3.40508 5.57326 4.27319C5.57326 5.14129 5.91812 5.97384 6.53196 6.58768C7.1458 7.20152 7.97835 7.54638 8.84645 7.54638Z" stroke="#CD0608" stroke-width="1.5" stroke-linecap="round" stroke-linejoin="round"/>
</svg>
