<svg width="16" height="18" viewBox="0 0 16 18" fill="none" xmlns="http://www.w3.org/2000/svg">
<path fill-rule="evenodd" clip-rule="evenodd" d="M4.25985 3.80952V4.44444H2.60836C1.81046 4.44444 1.14222 5.05735 1.05827 5.86582L0.00853801 16.0246C-0.0142933 16.2458 0.00878949 16.4695 0.0762893 16.681C0.143789 16.8926 0.254198 17.0874 0.400356 17.2527C0.546513 17.418 0.725155 17.5502 0.924694 17.6406C1.12423 17.7311 1.34021 17.7778 1.55862 17.7778H14.4414C14.6598 17.7778 14.8758 17.7311 15.0753 17.6406C15.2748 17.5502 15.4535 17.418 15.5996 17.2527C15.7458 17.0874 15.8562 16.8926 15.9237 16.681C15.9912 16.4695 16.0143 16.2458 15.9915 16.0246L14.9417 5.86582C14.9015 5.47568 14.7208 5.11454 14.4346 4.85207C14.1483 4.5896 13.7768 4.44439 13.3916 4.44444H11.7402V3.80952C11.7402 2.79918 11.3461 1.83021 10.6447 1.11578C9.94327 0.401359 8.99195 0 8 0C7.00805 0 6.05673 0.401359 5.35531 1.11578C4.6539 1.83021 4.25985 2.79918 4.25985 3.80952ZM8 1.26984C7.3387 1.26984 6.70448 1.53741 6.23687 2.0137C5.76926 2.48998 5.50656 3.13596 5.50656 3.80952V4.44444H10.4934V3.80952C10.4934 3.13596 10.2307 2.48998 9.76313 2.0137C9.29552 1.53741 8.6613 1.26984 8 1.26984ZM5.50656 8.25397C5.50656 8.92754 5.76926 9.57351 6.23687 10.0498C6.70448 10.5261 7.3387 10.7937 8 10.7937C8.6613 10.7937 9.29552 10.5261 9.76313 10.0498C10.2307 9.57351 10.4934 8.92754 10.4934 8.25397V7.61905C10.4934 7.45066 10.5591 7.28916 10.676 7.17009C10.7929 7.05102 10.9515 6.98413 11.1168 6.98413C11.2821 6.98413 11.4407 7.05102 11.5576 7.17009C11.6745 7.28916 11.7402 7.45066 11.7402 7.61905V8.25397C11.7402 9.26432 11.3461 10.2333 10.6447 10.9477C9.94327 11.6621 8.99195 12.0635 8 12.0635C7.00805 12.0635 6.05673 11.6621 5.35531 10.9477C4.6539 10.2333 4.25985 9.26432 4.25985 8.25397V7.61905C4.25985 7.45066 4.32552 7.28916 4.44242 7.17009C4.55933 7.05102 4.71788 6.98413 4.88321 6.98413C5.04853 6.98413 5.20708 7.05102 5.32399 7.17009C5.44089 7.28916 5.50656 7.45066 5.50656 7.61905V8.25397Z" fill="#353535"/>
</svg>
