<svg width="26" height="30" viewBox="0 0 26 30" fill="none" xmlns="http://www.w3.org/2000/svg">
<path d="M8.63636 14.5529H14.0909M8.63636 18.7991H14.0909M8.63636 23.0452H14.0909M18.4545 24.1068H21.7273C22.5953 24.1068 23.4277 23.7713 24.0414 23.174C24.6552 22.5768 25 21.7668 25 20.9222V6.21348C25 4.60702 23.7709 3.24401 22.1258 3.11096C21.5818 3.06706 21.0373 3.02931 20.4924 2.99773M20.4924 2.99773C20.5889 3.30216 20.6365 3.61896 20.6364 3.93755C20.6364 4.21908 20.5214 4.48909 20.3168 4.68817C20.1123 4.88724 19.8348 4.99908 19.5455 4.99908H13C12.3978 4.99908 11.9091 4.52351 11.9091 3.93755C11.9091 3.61059 11.96 3.29496 12.0545 2.99773M20.4924 2.99773C20.0807 1.69841 18.8356 0.75293 17.3636 0.75293H15.1818C14.4825 0.75309 13.8017 0.971104 13.2389 1.37505C12.6762 1.77899 12.2611 2.34764 12.0545 2.99773M12.0545 2.99773C11.5076 3.03028 10.9636 3.0685 10.4196 3.11096C8.77455 3.24401 7.54545 4.60702 7.54545 6.21348V9.24524M7.54545 9.24524H2.63636C1.73309 9.24524 1 9.95859 1 10.8375V26.7606C1 27.6396 1.73309 28.3529 2.63636 28.3529H16.8182C17.7215 28.3529 18.4545 27.6396 18.4545 26.7606V10.8375C18.4545 9.95859 17.7215 9.24524 16.8182 9.24524H7.54545ZM5.36364 14.5529H5.37527V14.5643H5.36364V14.5529ZM5.36364 18.7991H5.37527V18.8104H5.36364V18.7991ZM5.36364 23.0452H5.37527V23.0566H5.36364V23.0452Z" stroke="#CD0608" stroke-width="1.5" stroke-linecap="round" stroke-linejoin="round"/>
</svg>
