<svg width="14" height="19" viewBox="0 0 14 19" fill="none" xmlns="http://www.w3.org/2000/svg">
<path d="M10.5005 3.50047C10.5005 4.42885 10.1317 5.3192 9.4752 5.97567C8.81874 6.63213 7.92838 7.00093 7 7.00093C6.07162 7.00093 5.18126 6.63213 4.5248 5.97567C3.86833 5.3192 3.49953 4.42885 3.49953 3.50047C3.49953 2.57208 3.86833 1.68173 4.5248 1.02526C5.18126 0.368798 6.07162 0 7 0C7.92838 0 8.81874 0.368798 9.4752 1.02526C10.1317 1.68173 10.5005 2.57208 10.5005 3.50047ZM0 16.679C0.0299965 14.8423 0.780686 13.091 2.09018 11.8027C3.39967 10.5144 5.16304 9.79241 7 9.79241C8.83696 9.79241 10.6003 10.5144 11.9098 11.8027C13.2193 13.091 13.97 14.8423 14 16.679C11.8039 17.686 9.41593 18.2057 7 18.2024C4.50207 18.2024 2.13108 17.6573 0 16.679Z" fill="#353535"/>
</svg>
