<svg width="14" height="14" viewBox="0 0 14 14" fill="none" xmlns="http://www.w3.org/2000/svg">
<g id="Frame">
<path id="Vector" d="M11.375 7.00003C11.375 6.28136 11.3482 5.56911 11.2945 4.86386C11.2532 4.30511 11.0126 3.77979 10.6164 3.38362C10.2202 2.98745 9.69491 2.7468 9.13617 2.70553C7.71408 2.59824 6.28592 2.59824 4.86383 2.70553C4.30509 2.7468 3.77976 2.98745 3.38359 3.38362C2.98742 3.77979 2.74677 4.30511 2.7055 4.86386C2.69558 4.99219 2.68683 5.12111 2.67867 5.25003M11.375 7.00003L13.125 5.25003M11.375 7.00003L9.625 5.25003M2.625 7.00003C2.625 7.71869 2.65183 8.43094 2.7055 9.13619C2.74677 9.69494 2.98742 10.2203 3.38359 10.6164C3.77976 11.0126 4.30509 11.2533 4.86383 11.2945C6.28592 11.4019 7.71408 11.4019 9.13617 11.2945C9.69491 11.2533 10.2202 11.0126 10.6164 10.6164C11.0126 10.2203 11.2532 9.69494 11.2945 9.13619C11.3044 9.00786 11.3132 8.87894 11.3213 8.75003M2.625 7.00003L4.375 8.75003M2.625 7.00003L0.875 8.75003" stroke="white" stroke-linecap="round" stroke-linejoin="round"/>
</g>
</svg>
