<svg width="18" height="19" viewBox="0 0 18 19" fill="none" xmlns="http://www.w3.org/2000/svg">
<path d="M7.39055 15.3087C3.29732 15.3087 0 11.8937 0 7.65437C0 3.41503 3.29732 0 7.39055 0C11.4838 0 14.7811 3.41503 14.7811 7.65437C14.7811 11.8937 11.4838 15.3087 7.39055 15.3087ZM7.39055 1.1776C3.92267 1.1776 1.13701 4.06271 1.13701 7.65437C1.13701 11.246 3.92267 14.1312 7.39055 14.1312C10.8584 14.1312 13.6441 11.246 13.6441 7.65437C13.6441 4.06271 10.8584 1.1776 7.39055 1.1776Z" fill="#707070"/>
<path d="M12.8948 12.522L18 17.8094L17.1961 18.6419L12.0909 13.3545L12.8948 12.522Z" fill="#707070"/>
</svg>
