<svg width="25" height="26" viewBox="0 0 25 26" fill="none" xmlns="http://www.w3.org/2000/svg">
<path d="M12.2212 21.1635C12.026 20.882 11.7689 20.5073 11.4685 20.0603C10.7711 19.0224 9.84202 17.5969 8.9137 16.0445C7.98437 14.4904 7.06107 12.8178 6.37166 11.2843C5.67328 9.73077 5.24792 8.38968 5.24792 7.47329C5.24792 5.62386 5.98261 3.85017 7.29035 2.54243C8.5981 1.23468 10.3718 0.5 12.2212 0.5C14.0706 0.5 15.8443 1.23468 17.1521 2.54243C18.4598 3.85017 19.1945 5.62386 19.1945 7.47329C19.1945 8.38968 18.7691 9.73077 18.0708 11.2843C17.3814 12.8178 16.4581 14.4904 15.5287 16.0445C14.6004 17.5969 13.6713 19.0224 12.9739 20.0603C12.6736 20.5073 12.4164 20.882 12.2212 21.1635ZM7.75299 4.48772C7.1625 5.37145 6.84733 6.41043 6.84733 7.47329C6.84733 8.89853 7.41351 10.2654 8.4213 11.2732C9.4291 12.281 10.796 12.8472 12.2212 12.8472C13.2841 12.8472 14.3231 12.532 15.2068 11.9415C16.0905 11.351 16.7793 10.5117 17.186 9.52979C17.5928 8.54784 17.6992 7.46733 17.4918 6.4249C17.2845 5.38246 16.7727 4.42493 16.0211 3.67338C15.2696 2.92183 14.312 2.41002 13.2696 2.20266C12.2272 1.99531 11.1467 2.10173 10.1647 2.50847C9.18277 2.9152 8.34348 3.60399 7.75299 4.48772Z" stroke="#353535"/>
<path d="M9.20855 19.5734C8.48488 19.715 7.84653 19.9097 7.34418 20.1502C7.00758 20.3114 6.70783 20.5045 6.48577 20.7365C6.26126 20.9711 6.09193 21.2731 6.09193 21.6318C6.09193 22.1093 6.38826 22.4799 6.72919 22.7421C7.07673 23.0094 7.54817 23.2279 8.08579 23.4021C9.16654 23.7523 10.6284 23.9595 12.2213 23.9595C13.8147 23.9595 15.2766 23.7502 16.3572 23.3989C16.8947 23.2242 17.3658 23.0055 17.713 22.739C18.0529 22.478 18.3506 22.1084 18.3506 21.6318C18.3506 21.2743 18.1819 20.9731 17.9582 20.739C17.7369 20.5076 17.4381 20.3147 17.1023 20.1535C16.6008 19.9127 15.9626 19.7173 15.2378 19.5745C15.5562 19.0849 15.8943 18.5541 16.2406 17.9946C18.525 18.2771 20.4648 18.8001 21.8363 19.4628C22.5538 19.8096 23.0927 20.1836 23.4459 20.5614C23.7966 20.9364 23.9425 21.2895 23.9425 21.6156C23.9425 22.016 23.7173 22.4646 23.1592 22.9369C22.6033 23.4075 21.7692 23.8537 20.6948 24.2382C18.5503 25.0057 15.5546 25.4899 12.2213 25.4899C8.88797 25.4899 5.89228 25.0057 3.74774 24.2382C2.67331 23.8537 1.83925 23.4075 1.28333 22.9369C0.725196 22.4646 0.5 22.016 0.5 21.6156C0.5 21.2895 0.645929 20.9364 0.996654 20.5613C1.34996 20.1835 1.88899 19.8093 2.60684 19.4623C3.97882 18.799 5.91967 18.2751 8.20609 17.9907C8.55214 18.5503 8.89013 19.0826 9.20855 19.5734Z" stroke="#353535"/>
</svg>
