<svg width="32" height="29" viewBox="0 0 32 29" fill="none" xmlns="http://www.w3.org/2000/svg">
<path d="M27.5385 6.76953H4.46154C2.54978 6.76953 1 8.31931 1 10.2311V24.0772C1 25.989 2.54978 27.5388 4.46154 27.5388H27.5385C29.4502 27.5388 31 25.989 31 24.0772V10.2311C31 8.31931 29.4502 6.76953 27.5385 6.76953Z" stroke="#353535" stroke-width="1.5" stroke-linejoin="round"/>
<path d="M26.9615 6.76872V4.60501C26.9614 4.07433 26.8452 3.55023 26.6212 3.0701C26.3973 2.58997 26.0712 2.16565 25.6661 1.82741C25.261 1.48917 24.7869 1.24535 24.2777 1.11335C23.7685 0.981342 23.2368 0.964407 22.7204 1.06375L3.90367 4.3057C3.08653 4.46289 2.34934 4.90301 1.81926 5.55015C1.28918 6.19728 0.999437 7.01086 1 7.85057V11.3846" stroke="#353535" stroke-width="1.5" stroke-linejoin="round"/>
<path d="M24.0769 19.4616C23.6204 19.4616 23.1743 19.3262 22.7948 19.0727C22.4153 18.8191 22.1195 18.4587 21.9448 18.037C21.7702 17.6153 21.7245 17.1513 21.8135 16.7037C21.9026 16.256 22.1223 15.8448 22.4451 15.5221C22.7678 15.1994 23.179 14.9796 23.6266 14.8905C24.0743 14.8015 24.5383 14.8472 24.96 15.0219C25.3816 15.1965 25.7421 15.4923 25.9956 15.8718C26.2492 16.2513 26.3845 16.6975 26.3845 17.1539C26.3845 17.7659 26.1414 18.3529 25.7086 18.7857C25.2759 19.2184 24.6889 19.4616 24.0769 19.4616Z" fill="#353535"/>
</svg>
